<svg xmlns="http://www.w3.org/2000/svg" xml:space="preserve" viewBox="0.02 101.91 511.96 308.18"><style>.st2{fill:#4d4d4d}</style><path fill="#9dc6fb" d="M511.965 300.157c-.977-60.167-44.495-107.848-96.51-105.701-7.62.339-14.8-4.463-18.462-12.203-22.565-47.907-66.473-80.335-116.926-80.335-51.771 0-96.607 34.18-118.635 84.007-6.447 14.52-19.243 12.599-24.664 12.599-40.148 0-74.19 29.885-86.498 71.465-2.051 6.892-6.935 12.09-12.894 14.52C14.91 293.66-.915 318.8.062 348.063c1.172 34.914 26.862 62.031 57.046 62.031H416.92c52.26 0 96.07-49.489 95.045-109.938"/><path fill="#80b4fb" d="M118.257 348.064c-.977-29.264 14.896-54.404 37.266-63.5 5.958-2.429 10.842-7.626 12.894-14.518 12.308-41.58 46.399-71.466 86.497-71.466 5.47 0 18.267 1.92 24.665-12.598 12.992-29.434 33.944-53.33 59.537-68.076-17.827-10.225-37.852-15.988-59.098-15.988-51.771 0-96.607 34.18-118.634 84.007-6.447 14.52-19.244 12.599-24.665 12.599-40.147 0-74.19 29.885-86.498 71.465-2.051 6.892-6.935 12.09-12.894 14.52C14.91 293.66-.915 318.8.062 348.063c1.172 34.914 26.862 62.031 57.046 62.031h118.195c-30.183 0-55.874-27.117-57.046-62.03"/><path d="m348.389 219.66-9.374-7.922a7.42 7.42 0 0 0-9.884.262l-5.174 4.854a53.5 53.5 0 0 0-13.807-4.462l-1.453-7.136c-.742-3.692-4.172-6.25-7.921-5.945l-12.238 1.047c-3.75.334-6.7 3.386-6.816 7.165l-.233 7.267c-4.709 1.7-9.142 4.012-13.182 6.933l-6.192-4.113a7.457 7.457 0 0 0-9.796 1.395l-7.92 9.433a7.42 7.42 0 0 0 .26 9.883l5.422 5.77a55.4 55.4 0 0 0-3.982 13.211l-7.732 1.584c-3.692.742-6.25 4.172-5.945 7.921l1.047 12.238c.334 3.75 3.386 6.7 7.165 6.816l8.357.262c1.512 3.982 3.517 7.761 5.915 11.307l-4.665 7.05a7.457 7.457 0 0 0 1.395 9.795l9.375 7.921a7.42 7.42 0 0 0 9.883-.261l6.133-5.741a54 54 0 0 0 12.587 4.113l1.7 8.386c.741 3.692 4.171 6.25 7.921 5.945l12.238-1.047c3.75-.334 6.7-3.386 6.816-7.165l.262-8.212a55.4 55.4 0 0 0 12.586-6.366l6.758 4.462a7.457 7.457 0 0 0 9.796-1.395l7.921-9.375a7.42 7.42 0 0 0-.261-9.883l-5.45-5.77c1.99-4.229 3.459-8.691 4.287-13.27l7.441-1.51c3.692-.742 6.25-4.172 5.945-7.922l-1.047-12.237c-.334-3.75-3.386-6.7-7.165-6.817l-7.47-.232a54 54 0 0 0-6.22-12.267l4.069-6.133a7.424 7.424 0 0 0-1.352-9.84m-46.087 70.708c-13.212 1.134-24.882-8.72-25.973-21.932-1.133-13.211 8.72-24.882 21.932-25.972 13.212-1.134 24.882 8.72 25.973 21.932 1.119 13.211-8.72 24.867-21.932 25.972M151.192 323.272c-3.75.392-6.642 3.546-6.671 7.325l-.088 7.529a7.417 7.417 0 0 0 6.483 7.47l5.537.712a43 43 0 0 0 3.924 9.607l-3.575 4.404c-2.384 2.95-2.21 7.165.45 9.883l5.262 5.392a7.434 7.434 0 0 0 9.883.683l4.433-3.415a43.6 43.6 0 0 0 9.883 4.317l.596 5.711c.392 3.75 3.546 6.642 7.325 6.672l7.528.087a7.417 7.417 0 0 0 7.47-6.482l.684-5.422a44.3 44.3 0 0 0 10.712-4.17l4.17 3.356c2.951 2.384 7.166 2.21 9.884-.45l5.392-5.261a7.434 7.434 0 0 0 .683-9.884l-3.183-4.142a42.8 42.8 0 0 0 4.52-10.42l4.942-.51c3.75-.392 6.642-3.546 6.671-7.324l.087-7.529a7.417 7.417 0 0 0-6.482-7.47l-4.825-.625a45.2 45.2 0 0 0-4.07-10.421l3.009-3.692c2.383-2.95 2.209-7.165-.45-9.883l-5.262-5.392a7.434 7.434 0 0 0-9.883-.683l-3.605 2.761a43.4 43.4 0 0 0-10.828-4.694l-.48-4.666c-.392-3.75-3.545-6.642-7.324-6.67l-7.529-.088a7.417 7.417 0 0 0-7.47 6.482l-.596 4.636a45.4 45.4 0 0 0-11.22 4.579l-3.721-3.038a7.425 7.425 0 0 0-9.883.45l-5.422 5.291a7.434 7.434 0 0 0-.683 9.883l3.183 4.113c-1.845 3.27-3.299 6.759-4.258 10.421 0 .044-5.203.567-5.203.567m48.587-8.502c10.799.116 19.46 9.01 19.345 19.824-.117 10.799-9.011 19.461-19.825 19.345-10.799-.117-19.46-9.011-19.345-19.825.131-10.813 9.026-19.46 19.825-19.344" class="st2"/></svg>